<svg width="32" height="32" viewBox="0 0 32 32" fill="none" xmlns="http://www.w3.org/2000/svg">
<path d="M19 25.9999C18.8684 26.0007 18.7379 25.9755 18.6161 25.9257C18.4943 25.8759 18.3834 25.8026 18.29 25.7099C18.1963 25.617 18.1219 25.5064 18.0711 25.3845C18.0203 25.2627 17.9942 25.132 17.9942 24.9999C17.9942 24.8679 18.0203 24.7372 18.0711 24.6154C18.1219 24.4935 18.1963 24.3829 18.29 24.2899L26.59 15.9999L18.29 7.70994C18.1017 7.52164 17.9959 7.26624 17.9959 6.99994C17.9959 6.73364 18.1017 6.47825 18.29 6.28994C18.4783 6.10164 18.7337 5.99585 19 5.99585C19.2663 5.99585 19.5217 6.10164 19.71 6.28994L28.71 15.2899C28.8037 15.3829 28.8781 15.4935 28.9289 15.6154C28.9797 15.7372 29.0058 15.8679 29.0058 15.9999C29.0058 16.132 28.9797 16.2627 28.9289 16.3845C28.8781 16.5064 28.8037 16.617 28.71 16.7099L19.71 25.7099C19.6166 25.8026 19.5057 25.8759 19.3839 25.9257C19.2621 25.9755 19.1316 26.0007 19 25.9999Z" fill="white"/>
<path d="M28 17H4C3.73478 17 3.48043 16.8946 3.29289 16.7071C3.10536 16.5196 3 16.2652 3 16C3 15.7348 3.10536 15.4804 3.29289 15.2929C3.48043 15.1054 3.73478 15 4 15H28C28.2652 15 28.5196 15.1054 28.7071 15.2929C28.8946 15.4804 29 15.7348 29 16C29 16.2652 28.8946 16.5196 28.7071 16.7071C28.5196 16.8946 28.2652 17 28 17Z" fill="white"/>
</svg>
