<svg width="33" height="33" viewBox="0 0 33 33" fill="none" xmlns="http://www.w3.org/2000/svg">
<path d="M13.0889 6.28554C13.2205 6.2828 13.3513 6.30605 13.4739 6.35398C13.5964 6.4019 13.7083 6.47355 13.8032 6.56482C13.8983 6.65636 13.9743 6.76582 14.0269 6.8869C14.0795 7.00799 14.1076 7.13828 14.1096 7.27028C14.1116 7.40228 14.0874 7.53336 14.0385 7.65597C13.9896 7.77858 13.9169 7.89029 13.8246 7.98465L5.65032 16.3987L14.0742 24.5628C14.2653 24.7482 14.3749 25.002 14.379 25.2683C14.383 25.5345 14.281 25.7915 14.0956 25.9826C13.9101 26.1737 13.6564 26.2834 13.3901 26.2874C13.1238 26.2914 12.8669 26.1894 12.6758 26.004L3.54125 17.1405C3.44614 17.049 3.37008 16.9395 3.31748 16.8184C3.26489 16.6974 3.23678 16.5671 3.2348 16.4351C3.23281 16.3031 3.25698 16.172 3.3059 16.0494C3.35483 15.9268 3.42755 15.8151 3.51987 15.7207L12.3833 6.5862C12.4754 6.49212 12.5851 6.41713 12.7061 6.36554C12.8272 6.31395 12.9573 6.28676 13.0889 6.28554Z" fill="white"/>
<path d="M4.2254 15.4199L28.2227 15.0585C28.4879 15.0545 28.7438 15.156 28.9341 15.3407C29.1245 15.5254 29.2336 15.7781 29.2376 16.0433C29.2416 16.3085 29.1401 16.5644 28.9554 16.7548C28.7707 16.9451 28.518 17.0543 28.2528 17.0583L4.25552 17.4197C3.99033 17.4236 3.73442 17.3221 3.54408 17.1374C3.35374 16.9527 3.24457 16.7 3.24058 16.4348C3.23658 16.1696 3.3381 15.9137 3.52279 15.7234C3.70748 15.533 3.96022 15.4239 4.2254 15.4199Z" fill="white"/>
</svg>
