<svg width="100" height="100" viewBox="0 0 100 100" fill="none" xmlns="http://www.w3.org/2000/svg">
<path d="M27.8787 67.8788C26.7071 69.0504 26.7071 70.9496 27.8787 72.1212C29.0502 73.2928 30.9497 73.2928 32.1213 72.1212L27.8787 67.8788ZM52.1212 52.1212C53.2928 50.9496 53.2928 49.0504 52.1212 47.8788C50.9496 46.7072 49.0504 46.7072 47.8788 47.8788L52.1212 52.1212ZM47.8788 47.8788C46.7072 49.0504 46.7072 50.9496 47.8788 52.1212C49.0504 53.2928 50.9496 53.2928 52.1212 52.1212L47.8788 47.8788ZM72.1212 32.1213C73.2928 30.9498 73.2928 29.0502 72.1212 27.8787C70.9496 26.7071 69.0504 26.7071 67.8788 27.8787L72.1212 32.1213ZM52.1212 47.8788C50.9496 46.7072 49.0504 46.7072 47.8788 47.8788C46.7072 49.0504 46.7072 50.9496 47.8788 52.1212L52.1212 47.8788ZM67.8788 72.1212C69.0504 73.2928 70.9496 73.2928 72.1212 72.1212C73.2928 70.9496 73.2928 69.0504 72.1212 67.8788L67.8788 72.1212ZM47.8788 52.1212C49.0504 53.2928 50.9496 53.2928 52.1212 52.1212C53.2928 50.9496 53.2928 49.0504 52.1212 47.8788L47.8788 52.1212ZM32.1213 27.8787C30.9497 26.7071 29.0502 26.7071 27.8787 27.8787C26.7071 29.0502 26.7071 30.9498 27.8787 32.1213L32.1213 27.8787ZM32.1213 72.1212L52.1212 52.1212L47.8788 47.8788L27.8787 67.8788L32.1213 72.1212ZM52.1212 52.1212L72.1212 32.1213L67.8788 27.8787L47.8788 47.8788L52.1212 52.1212ZM47.8788 52.1212L67.8788 72.1212L72.1212 67.8788L52.1212 47.8788L47.8788 52.1212ZM52.1212 47.8788L32.1213 27.8787L27.8787 32.1213L47.8788 52.1212L52.1212 47.8788Z" fill="white"/>
</svg>
