<svg width="32" height="32" viewBox="0 0 32 32" fill="none" xmlns="http://www.w3.org/2000/svg">
<path d="M22.6114 10.1511C21.5772 9.42215 19.0492 8.22444 15.9716 8.22444C12.8049 8.22444 10.5418 9.08844 9.20066 10.1511M20.5506 23.9965L21.5702 25.8592C21.5702 25.8592 26.4461 25.2428 29.6572 21.7726C29.1105 13.2766 25.9248 8.94855 25.9248 8.94855C25.9248 8.94855 23.0725 6.09171 19.704 5.85156L18.6301 8.38398M6.01819 20.6069C8.03251 22.035 11.0725 23.5215 15.9714 23.5215C20.8703 23.5215 23.9103 22.035 25.9246 20.6069M13.3914 8.38398L12.239 5.85156C8.70497 6.16455 6.01819 8.94855 6.01819 8.94855C6.01819 8.94855 2.83251 13.2766 2.28577 21.7726C5.49689 25.2426 10.3728 25.8592 10.3728 25.8592L11.3924 23.9965M11.5196 18.7905C10.1957 18.7905 9.12249 17.7466 9.12249 16.4588C9.12249 15.171 10.1957 14.1272 11.5196 14.1272C12.8435 14.1272 13.9167 15.1712 13.9167 16.459C13.9167 17.7467 12.8435 18.7905 11.5196 18.7905ZM20.4234 18.7905C19.0995 18.7905 18.0263 17.7466 18.0263 16.4588C18.0263 15.171 19.0995 14.1271 20.4234 14.1271C21.7473 14.1271 22.8205 15.171 22.8205 16.4588C22.8205 17.7466 21.7473 18.7905 20.4234 18.7905Z" stroke="#F0E3CA" stroke-miterlimit="1" stroke-linecap="round" stroke-linejoin="round"/>
</svg>
