<svg width="130" height="129" viewBox="0 0 130 129" fill="none" xmlns="http://www.w3.org/2000/svg">
<g clip-path="url(#clip0_165_4)">
<path d="M77.1875 1.50279L82.0625 2.56945L86.0167 3.95612L89.2125 5.55612L91.65 7.26279L93.4917 9.07612L94.8459 10.8895L95.7125 12.6495L96.2542 14.2495L96.4709 15.6361L96.5792 16.7028L96.525 17.3961V45.8761L96.2542 49.2361L95.55 52.1695L94.4125 54.6228L93.0042 56.6495L91.3792 58.3028L89.5917 59.6361L87.6959 60.6495L85.8 61.3961L84.0125 61.9295L82.3875 62.3028L80.9792 62.5161L79.8417 62.6228H47.5042L43.7667 62.8895L40.5709 63.6361L37.8625 64.8095L35.6417 66.2495L33.8542 67.9561L32.3917 69.8228L31.3084 71.7428L30.4959 73.7161L29.9542 75.5828L29.575 77.2895L29.3584 78.7295L29.25 79.8495V96.1695H17.1709L16.0334 96.0095L14.5167 95.6361L12.7834 94.9961L10.8875 94.0361L8.93755 92.6495L6.98755 90.7295L5.09172 88.2761L3.35838 85.1295L1.84172 81.2361L0.704215 76.5428L-0.0541179 70.9428L-0.324951 64.3828L4.88113e-05 57.8761L0.866715 52.3295L2.16672 47.6895L3.90005 43.9028L5.85005 40.8628L8.01672 38.5161L10.2917 36.7561L12.5667 35.4761L14.7334 34.6228L16.6834 34.0895L18.4167 33.8228L19.7167 33.7695H20.5834L20.9084 33.8228H65.1084V29.3961H33.475L33.4209 14.7295L33.3125 12.7561L33.5834 10.9428L34.1792 9.28945L35.1 7.79612L36.4542 6.40945L38.1334 5.18279L40.1917 4.11612L42.575 3.15612L45.3375 2.35612L48.4792 1.71612L51.9459 1.18279L55.7917 0.862786L59.9625 0.649452L64.5125 0.542786L71.3917 0.809452L77.1875 1.50279ZM43.0625 12.0628L41.8167 13.8228L41.3834 16.0095L41.8167 18.1961L43.0625 20.0095L44.85 21.1828L47.0709 21.6628L49.2917 21.1828L51.0792 20.0095L52.325 18.1961L52.7584 16.0095L52.325 13.8228L51.0792 12.0628L49.2917 10.8895L47.0709 10.4095L44.85 10.8895L43.0625 12.0628ZM113.967 33.1295L115.483 33.4495L117.217 34.0895L119.113 35.0495L121.063 36.4895L123.013 38.3561L124.908 40.8628L126.642 44.0095L128.158 47.9028L129.296 52.5961L130.054 58.1428L130.325 64.7028L130 71.2628L129.133 76.8095L127.833 81.3961L126.1 85.1828L124.15 88.2228L121.983 90.6228L119.708 92.3828L117.433 93.6628L115.267 94.5161L113.317 94.9961L111.583 95.2628L110.283 95.3695L109.417 95.3161H64.8917V99.6895H96.525L96.5792 114.409L96.6875 116.329L96.4167 118.143L95.8209 119.796L94.9 121.343L93.5459 122.676L91.8667 123.956L89.8084 125.023L87.425 125.929L84.6625 126.729L81.5209 127.423L78.0542 127.903L74.2084 128.276L70.0376 128.489L65.4875 128.543L58.6084 128.329L52.8125 127.583L47.9376 126.516L43.9834 125.183L40.7875 123.583L38.35 121.823L36.5084 120.009L35.1542 118.196L34.2875 116.436L33.7459 114.836L33.5292 113.503L33.4209 112.436L33.475 111.743V83.2628L33.7459 79.8495L34.45 76.9695L35.5875 74.5161L36.9959 72.4895L38.6209 70.7828L40.4084 69.5028L42.3042 68.4361L44.2 67.6895L45.9875 67.1561L47.6125 66.8361L49.0209 66.6228L50.1584 66.5161L50.8626 66.4628H82.4959L86.2334 66.1961L89.4292 65.4495L92.1375 64.3295L94.3584 62.8361L96.1459 61.1295L97.6084 59.2628L98.6917 57.3428L99.5042 55.4228L100.046 53.5561L100.425 51.8495L100.642 50.3561L100.75 49.2361V32.9161H112.071L112.829 32.9695L113.967 33.1295ZM78.9209 109.129L77.675 110.889L77.2417 113.076L77.675 115.263L78.9209 117.023L80.7084 118.249L82.9292 118.676L85.1501 118.249L86.9375 117.023L88.1834 115.263L88.6167 113.076L88.1834 110.889L86.9375 109.129L85.1501 107.903L82.9292 107.476L80.7084 107.903L78.9209 109.129Z" fill="#F0E3CA"/>
</g>
<defs>
<clipPath id="clip0_165_4">
<rect width="130" height="128" fill="white" transform="translate(0 0.542786)"/>
</clipPath>
</defs>
</svg>
