<svg xmlns="http://www.w3.org/2000/svg">
    <symbol id="html-icon" viewBox="0 0 114 129" width="114" height="129">
        <path fill-rule="evenodd" clip-rule="evenodd" d="M0 0H113.459L103.058 115.271L57.0445 128.271L10.164 115.271L0 0ZM92.4217 19.3037H21.1948L24.898 61.9296H74.1422L72.724 80.8393L56.8082 85.1728L40.8925 80.8393L39.7894 69.4147H25.6859L27.6556 91.6337L56.8082 99.6703L85.8032 91.5549L89.5852 47.9836H37.8984L36.4802 32.777H91.161L92.4217 19.3037Z"/>
    </symbol>
    <symbol id="css-icon" viewBox="0 0 114 129" width="114" height="129">
        <path fill-rule="evenodd" clip-rule="evenodd" d="M2.38419e-05 0H113.283L102.899 115.092L56.9561 128.073L10.1483 115.092L2.38419e-05 0ZM21.0832 23.2859H91.9637L85.5128 95.5824L56.6415 103.607L27.6127 95.5824L25.4887 73.5552H39.413L40.357 84.8048L56.6415 89.1316L72.4539 84.8048L74.1846 66.003H24.8593L23.522 51.9213H75.2859L76.5446 37.2889H22.2633L21.0832 23.2859Z"/>
    </symbol>
    <symbol id="js-icon" viewBox="0 0 129 129" width="129" height="129">
        <path fill-rule="evenodd" clip-rule="evenodd" d="M0 0H128V128H0V0ZM69.4589 58.6666H57.851V101.208C57.851 102.463 56.7843 107.608 51.3883 107.357C45.9922 107.106 43.5451 101.082 43.5451 101.082L33.9451 106.98C33.9451 106.98 39.2785 117.898 50.0079 117.898C60.7373 117.898 69.4589 113.882 69.4589 101.208V58.6666ZM114.384 67.5765C110.35 60.5602 103.782 57.6466 96.9412 58.0392C90.1007 58.4318 80.1254 60.9977 79.8745 74.5412C79.6237 88.0846 96.1255 92.8 96.1255 92.8C103.004 95.6933 106.238 97.4064 106.039 101.333C105.295 106.157 102.086 107.42 97.9451 107.42C93.8039 107.42 89.69 105.561 85.8981 100.141L76.3608 105.663C81.4623 113.734 87.4667 118.023 97.9451 117.961C108.424 117.898 118.4 112.502 118.086 101.333C117.773 90.1647 112.376 87.2225 101.459 82.1333C94.2631 79.3103 92.1098 78.0549 91.7334 74.5412C91.3569 71.0275 93.8039 68.3922 97.3177 68.3922C100.831 68.3922 103.372 70.2755 105.161 73.6L114.384 67.5765Z"/>
    </symbol>
    <symbol id="git-icon" viewBox="0 0 129 129" width="129" height="129">
        <path fill-rule="evenodd" clip-rule="evenodd" d="M17 0C7.6112 0 3.72467e-05 7.61116 3.72467e-05 17V33.1551H0V44.0195H3.72467e-05V64V111C3.72467e-05 120.389 7.6112 128 17 128H64.2498H111.5C120.888 128 128.5 120.389 128.5 111V64V17C128.5 7.61116 120.888 0 111.5 0H64.2498H17ZM3.72467e-05 44.0195H27.5528C29.5255 48.8193 34.2471 52.199 39.758 52.199C41.5519 52.199 43.2622 51.8409 44.8212 51.1923L78.3283 84.6994C77.6855 86.2525 77.3307 87.9551 77.3307 89.7405C77.3307 97.0253 83.2362 102.931 90.521 102.931C97.8058 102.931 103.711 97.0253 103.711 89.7405C103.711 82.4557 97.8058 76.5502 90.521 76.5502C89.0264 76.5502 87.5898 76.7988 86.2504 77.2569L53.013 44.0195H78.3782C80.3509 48.8193 85.0725 52.199 90.5834 52.199C97.8682 52.199 103.774 46.2936 103.774 39.0088C103.774 31.724 97.8682 25.8185 90.5834 25.8185C85.401 25.8185 80.9167 28.8073 78.76 33.1551H51.5815C49.4248 28.8073 44.9404 25.8185 39.758 25.8185C34.5756 25.8185 30.0913 28.8073 27.9346 33.1551H3.72467e-05V44.0195Z"/>
    </symbol>
    <symbol id="sass-icon" viewBox="0 0 129 129" width="129" height="129">
        <path fill-rule="evenodd" clip-rule="evenodd" d="M128 64C128 99.3462 99.3462 128 64 128C28.6538 128 0 99.3462 0 64C0 28.6538 28.6538 0 64 0C99.3462 0 128 28.6538 128 64ZM54.3713 51.548C54.3713 51.548 54.0391 51.0504 53.7068 51.0504C53.3746 51.0504 53.1301 51.1583 53.0453 51.548C53.041 52.2082 53.1848 52.8726 53.5429 53.54C54.4346 55.2169 55.8641 56.5731 57.6935 57.6906C60.5153 59.497 64.1424 60.0521 68.1521 60.0147C71.0127 59.9975 74.2962 59.5991 77.7809 59.0181C82.4953 57.9063 86.7409 56.018 90.7305 53.7054C95.0739 50.9037 98.7168 47.1457 101.521 42.2501C101.696 41.9101 101.871 41.597 102.047 41.2839C102.998 39.5903 103.948 37.8972 104.675 31.9569C104.675 29.847 104.294 27.6854 103.348 25.4821C102.363 22.6416 99.9652 20.5562 96.873 18.8419C96.873 18.8419 90.7305 15.5211 82.4292 15.5211C74.1279 15.5211 67.6531 17.6798 67.6531 17.6798C62.2009 19.2316 56.53 21.6636 50.7197 24.6522C46.7877 26.6024 42.9894 29.0589 39.2644 31.7915C33.1866 35.9766 28.8461 41.3972 25.3196 47.3974C24.1158 49.8438 23.4068 52.3808 23.3277 55.0343C23.5909 58.7204 25.1355 62.1519 27.976 65.3275C31.1026 68.9431 34.6521 72.0338 38.6014 74.624L45.906 79.7699C46.8089 80.3864 47.6782 81.031 48.4614 81.7475C47.3677 82.3084 46.15 82.9693 44.7425 83.7551C39.9332 85.9944 35.4474 89.5885 31.1285 93.883C29.8068 95.547 28.754 97.3591 28.1399 99.5279C26.7161 104.557 27.6797 108.456 31.1285 111.149C32.3193 111.773 34.1876 112.145 36.6066 112.311C43.2037 112.276 48.0705 109.61 51.8803 105.338C55.1134 101.845 57.1657 97.198 57.5253 90.8944C57.6709 88.2606 57.1523 85.7504 55.9832 83.3616C57.924 82.7621 59.9697 82.4078 62.175 82.4263C70.1282 83.1209 77.4947 84.5232 78.7761 93.2171C78.5719 95.4161 77.5192 97.3864 75.4553 98.862C75.4553 98.862 73.7957 99.6919 74.2933 100.189C74.7909 100.687 75.7876 100.189 75.7876 100.189C78.7833 99.0547 80.722 96.8974 81.4325 93.5493C82.061 89.9452 80.4459 86.4762 77.4487 83.0907C75.0555 80.7177 72.0641 78.5417 64.6659 78.1102C62.3001 78.1217 60.127 78.2051 58.3566 78.4424C56.5156 78.7334 55.016 79.0607 53.4936 79.5627C52.1689 77.9675 50.5231 76.4323 48.561 74.9562L41.0895 69.1459C35.7739 64.9305 32.8687 60.4735 33.1204 55.6987C33.1607 48.4746 38.6877 40.4725 57.1931 30.6294C65.7547 25.9711 74.3882 23.5606 83.0922 23.3248C90.7161 23.5606 96.9334 25.1714 97.7015 32.1237C97.4138 37.9944 93.942 42.8153 88.7371 47.0652C82.0135 52.2571 74.2775 55.3823 65.1621 55.6987C60.452 55.5836 56.7098 54.3655 54.3713 51.548ZM51.14 85.388C49.2473 86.3637 47.4183 87.488 45.5893 88.6123C45.252 88.8196 44.9148 89.0269 44.5771 89.2333C40.7486 91.9083 38.0204 94.9645 36.2758 98.3644C35.597 99.6387 35.2533 101.039 35.1138 102.515C35.1051 105.041 36.3003 105.8 38.1023 105.669C41.649 105.886 45.0014 103.719 48.2302 100.024C50.3587 97.1894 51.7782 94.021 51.8832 90.2285C52.0001 88.3098 51.7116 86.7304 51.14 85.388Z"/>
    </symbol>
    <symbol id="python-icon" viewBox="0 0 130 130" width="130" height="130">
        <path d="M77.1875 1.50279L82.0625 2.56945L86.0167 3.95612L89.2125 5.55612L91.65 7.26279L93.4917 9.07612L94.8459 10.8895L95.7125 12.6495L96.2542 14.2495L96.4709 15.6361L96.5792 16.7028L96.525 17.3961V45.8761L96.2542 49.2361L95.55 52.1695L94.4125 54.6228L93.0042 56.6495L91.3792 58.3028L89.5917 59.6361L87.6959 60.6495L85.8 61.3961L84.0125 61.9295L82.3875 62.3028L80.9792 62.5161L79.8417 62.6228H47.5042L43.7667 62.8895L40.5709 63.6361L37.8625 64.8095L35.6417 66.2495L33.8542 67.9561L32.3917 69.8228L31.3084 71.7428L30.4959 73.7161L29.9542 75.5828L29.575 77.2895L29.3584 78.7295L29.25 79.8495V96.1695H17.1709L16.0334 96.0095L14.5167 95.6361L12.7834 94.9961L10.8875 94.0361L8.93755 92.6495L6.98755 90.7295L5.09172 88.2761L3.35838 85.1295L1.84172 81.2361L0.704215 76.5428L-0.0541179 70.9428L-0.324951 64.3828L4.88113e-05 57.8761L0.866715 52.3295L2.16672 47.6895L3.90005 43.9028L5.85005 40.8628L8.01672 38.5161L10.2917 36.7561L12.5667 35.4761L14.7334 34.6228L16.6834 34.0895L18.4167 33.8228L19.7167 33.7695H20.5834L20.9084 33.8228H65.1084V29.3961H33.475L33.4209 14.7295L33.3125 12.7561L33.5834 10.9428L34.1792 9.28945L35.1 7.79612L36.4542 6.40945L38.1334 5.18279L40.1917 4.11612L42.575 3.15612L45.3375 2.35612L48.4792 1.71612L51.9459 1.18279L55.7917 0.862786L59.9625 0.649452L64.5125 0.542786L71.3917 0.809452L77.1875 1.50279ZM43.0625 12.0628L41.8167 13.8228L41.3834 16.0095L41.8167 18.1961L43.0625 20.0095L44.85 21.1828L47.0709 21.6628L49.2917 21.1828L51.0792 20.0095L52.325 18.1961L52.7584 16.0095L52.325 13.8228L51.0792 12.0628L49.2917 10.8895L47.0709 10.4095L44.85 10.8895L43.0625 12.0628ZM113.967 33.1295L115.483 33.4495L117.217 34.0895L119.113 35.0495L121.063 36.4895L123.013 38.3561L124.908 40.8628L126.642 44.0095L128.158 47.9028L129.296 52.5961L130.054 58.1428L130.325 64.7028L130 71.2628L129.133 76.8095L127.833 81.3961L126.1 85.1828L124.15 88.2228L121.983 90.6228L119.708 92.3828L117.433 93.6628L115.267 94.5161L113.317 94.9961L111.583 95.2628L110.283 95.3695L109.417 95.3161H64.8917V99.6895H96.525L96.5792 114.409L96.6875 116.329L96.4167 118.143L95.8209 119.796L94.9 121.343L93.5459 122.676L91.8667 123.956L89.8084 125.023L87.425 125.929L84.6625 126.729L81.5209 127.423L78.0542 127.903L74.2084 128.276L70.0376 128.489L65.4875 128.543L58.6084 128.329L52.8125 127.583L47.9376 126.516L43.9834 125.183L40.7875 123.583L38.35 121.823L36.5084 120.009L35.1542 118.196L34.2875 116.436L33.7459 114.836L33.5292 113.503L33.4209 112.436L33.475 111.743V83.2628L33.7459 79.8495L34.45 76.9695L35.5875 74.5161L36.9959 72.4895L38.6209 70.7828L40.4084 69.5028L42.3042 68.4361L44.2 67.6895L45.9875 67.1561L47.6125 66.8361L49.0209 66.6228L50.1584 66.5161L50.8626 66.4628H82.4959L86.2334 66.1961L89.4292 65.4495L92.1375 64.3295L94.3584 62.8361L96.1459 61.1295L97.6084 59.2628L98.6917 57.3428L99.5042 55.4228L100.046 53.5561L100.425 51.8495L100.642 50.3561L100.75 49.2361V32.9161H112.071L112.829 32.9695L113.967 33.1295ZM78.9209 109.129L77.675 110.889L77.2417 113.076L77.675 115.263L78.9209 117.023L80.7084 118.249L82.9292 118.676L85.1501 118.249L86.9375 117.023L88.1834 115.263L88.6167 113.076L88.1834 110.889L86.9375 109.129L85.1501 107.903L82.9292 107.476L80.7084 107.903L78.9209 109.129Z"/>
    </symbol>
</svg>

